{
    "asset" : {
        "generator" : "Khronos glTF Blender I/O v1.7.33",
        "version" : "2.0"
    },
    "scene" : 0,
    "scenes" : [
        {
            "name" : "Scene",
            "nodes" : [
                0
            ]
        }
    ],
    "nodes" : [
        {
            "mesh" : 0,
            "name" : "Cube.001",
            "scale" : [
                0.26974818110466003,
                3.6504037380218506,
                3.805744171142578
            ],
            "translation" : [
                0,
                3.6100001335144043,
                0
            ]
        }
    ],
    "materials" : [
        {
            "doubleSided" : true,
            "name" : "billboard color",
            "pbrMetallicRoughness" : {
                "baseColorFactor" : [
                    0.8000000715255737,
                    0.07385461032390594,
                    0,
                    1
                ],
                "metallicFactor" : 0,
                "roughnessFactor" : 0.5
            }
        }
    ],
    "meshes" : [
        {
            "name" : "Cube.002",
            "primitives" : [
                {
                    "attributes" : {
                        "POSITION" : 0,
                        "NORMAL" : 1,
                        "TEXCOORD_0" : 2
                    },
                    "indices" : 3,
                    "material" : 0
                }
            ]
        }
    ],
    "accessors" : [
        {
            "bufferView" : 0,
            "componentType" : 5126,
            "count" : 1800,
            "max" : [
                1.8543081283569336,
                1,
                1.122492790222168
            ],
            "min" : [
                -1.8543081283569336,
                -1.0096272230148315,
                -1.122492790222168
            ],
            "type" : "VEC3"
        },
        {
            "bufferView" : 1,
            "componentType" : 5126,
            "count" : 1800,
            "type" : "VEC3"
        },
        {
            "bufferView" : 2,
            "componentType" : 5126,
            "count" : 1800,
            "type" : "VEC2"
        },
        {
            "bufferView" : 3,
            "componentType" : 5123,
            "count" : 2712,
            "type" : "SCALAR"
        }
    ],
    "bufferViews" : [
        {
            "buffer" : 0,
            "byteLength" : 21600,
            "byteOffset" : 0
        },
        {
            "buffer" : 0,
            "byteLength" : 21600,
            "byteOffset" : 21600
        },
        {
            "buffer" : 0,
            "byteLength" : 14400,
            "byteOffset" : 43200
        },
        {
            "buffer" : 0,
            "byteLength" : 5424,
            "byteOffset" : 57600
        }
    ],
    "buffers" : [
        {
            "byteLength" : 63024,
            "uri" : "data:application/octet-stream;base64,"
        }
    ]
}
