{
    "asset" : {
        "generator" : "Khronos glTF Blender I/O v1.7.33",
        "version" : "2.0"
    },
    "scene" : 0,
    "scenes" : [
        {
            "name" : "Scene",
            "nodes" : [
                0,
                1
            ]
        }
    ],
    "nodes" : [
        {
            "mesh" : 0,
            "name" : "Cube.001",
            "scale" : [
                0.18563660979270935,
                1.822231650352478,
                2.6190555095672607
            ],
            "translation" : [
                0,
                1.8299999237060547,
                0
            ]
        },
        {
            "mesh" : 1,
            "name" : "Screenshot (32)",
            "rotation" : [
                0.5,
                0.5,
                -0.5,
                0.4999999701976776
            ],
            "scale" : [
                3.988661050796509,
                3.988661050796509,
                3.379823923110962
            ],
            "translation" : [
                0,
                1.8965692520141602,
                0
            ]
        }
    ],
    "materials" : [
        {
            "alphaMode" : "BLEND",
            "doubleSided" : true,
            "name" : "Screenshot (32)",
            "pbrMetallicRoughness" : {
                "baseColorTexture" : {
                    "index" : 0
                },
                "metallicFactor" : 0,
                "roughnessFactor" : 0.5
            }
        }
    ],
    "meshes" : [
        {
            "name" : "Cube.002",
            "primitives" : [
                {
                    "attributes" : {
                        "POSITION" : 0,
                        "NORMAL" : 1,
                        "TEXCOORD_0" : 2
                    },
                    "indices" : 3
                }
            ]
        },
        {
            "name" : "Screenshot (32)",
            "primitives" : [
                {
                    "attributes" : {
                        "POSITION" : 4,
                        "NORMAL" : 5,
                        "TEXCOORD_0" : 6
                    },
                    "indices" : 7,
                    "material" : 0
                }
            ]
        }
    ],
    "textures" : [
        {
            "sampler" : 0,
            "source" : 0
        }
    ],
    "images" : [
        {
            "mimeType" : "image/png",
            "name" : "Screenshot (32)",
            "uri" : "Screenshot%2032.png"
        }
    ],
    "accessors" : [
        {
            "bufferView" : 0,
            "componentType" : 5126,
            "count" : 1800,
            "max" : [
                1.8543081283569336,
                1,
                1.122492790222168
            ],
            "min" : [
                -1.8543081283569336,
                -1.0096272230148315,
                -1.122492790222168
            ],
            "type" : "VEC3"
        },
        {
            "bufferView" : 1,
            "componentType" : 5126,
            "count" : 1800,
            "type" : "VEC3"
        },
        {
            "bufferView" : 2,
            "componentType" : 5126,
            "count" : 1800,
            "type" : "VEC2"
        },
        {
            "bufferView" : 3,
            "componentType" : 5123,
            "count" : 2712,
            "type" : "SCALAR"
        },
        {
            "bufferView" : 4,
            "componentType" : 5126,
            "count" : 4,
            "max" : [
                0.625,
                0,
                0.5
            ],
            "min" : [
                -0.625,
                0,
                -0.5
            ],
            "type" : "VEC3"
        },
        {
            "bufferView" : 5,
            "componentType" : 5126,
            "count" : 4,
            "type" : "VEC3"
        },
        {
            "bufferView" : 6,
            "componentType" : 5126,
            "count" : 4,
            "type" : "VEC2"
        },
        {
            "bufferView" : 7,
            "componentType" : 5123,
            "count" : 6,
            "type" : "SCALAR"
        }
    ],
    "bufferViews" : [
        {
            "buffer" : 0,
            "byteLength" : 21600,
            "byteOffset" : 0
        },
        {
            "buffer" : 0,
            "byteLength" : 21600,
            "byteOffset" : 21600
        },
        {
            "buffer" : 0,
            "byteLength" : 14400,
            "byteOffset" : 43200
        },
        {
            "buffer" : 0,
            "byteLength" : 5424,
            "byteOffset" : 57600
        },
        {
            "buffer" : 0,
            "byteLength" : 48,
            "byteOffset" : 63024
        },
        {
            "buffer" : 0,
            "byteLength" : 48,
            "byteOffset" : 63072
        },
        {
            "buffer" : 0,
            "byteLength" : 32,
            "byteOffset" : 63120
        },
        {
            "buffer" : 0,
            "byteLength" : 12,
            "byteOffset" : 63152
        }
    ],
    "samplers" : [
        {
            "magFilter" : 9729,
            "minFilter" : 9987,
            "wrapS" : 33071,
            "wrapT" : 33071
        }
    ],
    "buffers" : [
        {
            "byteLength" : 63164,
            "uri" : "billboard-2.bin"
        }
    ]
}
